{"title":"YLE TV2 Ajankohtainen kakkonen A2 Teema Homoilta 2010-10-12 Finn","uid":5894913,"size":1613816161,"categoryP":"video","categoryS":"tv_shows","magnet":"?xt=urn:btih:892a0deceba12adffc6d8a64b1675a2abd0d86e7&amp;dn=YLE+TV2+Ajankohtainen+kakkonen+A2+Teema+Homoilta+2010-10-12+Finn&amp;tr=udp%3A%2F%2Ftracker.openbittorrent.com%3A80&amp;tr=udp%3A%2F%2Fopen.demonii.com%3A1337&amp;tr=udp%3A%2F%2Ftracker.coppersurfer.tk%3A6969&amp;tr=udp%3A%2F%2Fexodus.desync.com%3A6969","seeders":0,"leechers":0,"uploader":"kasarmi","files":3,"time":1287410558,"description":"Ajankohtainen kakkonen - A2 Teema: Homoilta\nYLE TV2 tiistai 12.10.2010 klo 21.00-21:50 ja 22:05-23.15\n\nMies- ja naispareille oikeus avioliittoon ja lasten adoptointiin? KirkkohÃƒÂ¤ÃƒÂ¤t\nmyÃƒÂ¶s homopareille? Suoran keskustelun juontavat Salla Paajanen ja Jyrki Richt.\n\nStudiossa keskustelemassa:\n- Mr. Gay Finland Kenneth Liukkonen\n- Tampereen piispa Matti Repo\n- sarjakuvataiteilija Pertti Jarla\n- lesbopareja siunannut pastori Leena Huovinen\n- nÃƒÂ¤yttelijÃƒÂ¤ Elsa Saisio\n- raamatunopettaja Pasi Turunen\n- kuuluttaja, Seta:n hallituksen jÃƒÂ¤sen Manne Maalismaa\n- ohjaaja Mikko Roiha\n- Tosimies -lehden pÃƒÂ¤ÃƒÂ¤toimittaja Kimmo Janas\n- kirkkovaltuutettu Sonja Falk\n- Sateenkaariperheet ry:n puheenjohtaja Juha JÃƒÂ¤msÃƒÂ¤\n- opiskelija Maija Paloheimo\n- kansanedustaja PÃƒÂ¤ivi RÃƒÂ¤sÃƒÂ¤nen (kd.)\n- kansanedustaja Oras Tynkkynen (vihr.)\n- kansanedustaja Pentti Oinonen (ps.)\n- kansanedustaja Lenita Toivakka (kok.)\n- seksologi Tarja Sandberg\n- sateenkaariperheen ÃƒÂ¤iti Heidi Kontkanen\n\n\nSummary in English\n\n(http://en.wikipedia.org/wiki/LGBT_rights_in_Finland#Homoilta_and_resignations_from_the_Evangelical_Lutheran_Church)\n\n'On October 12, 2010, on TV2 (YLE), the current affairs program Ajankohtainen kakkonen\nhad a special panel discussion episode, A2 Teema, with the title Homoilta  (literally\n&quot;Gay Night&quot;, loosely &quot;On Gay People&quot;).'\n\n'The following day, over 2000 people left the Church online, through eroakirkosta.fi\n(&quot;leavethechurch.fi&quot;), while the average has been at 130. By late Sunday night,\nOctober 17, over 18,000 people had left the church through the website since October 12.'\n\nNews in english: &lt;a href=&quot;\nhttp://www.yle.fi/uutiset/news/2010/10/hundreds_quit_church_following_news_programme_on_homosexuality_2055243.html&quot; rel=&quot;nofollow&quot; target=&quot;_NEW&quot;&gt;\nhttp://www.yle.fi/uutiset/news/2010/10/hundreds_quit_church_following_news_programme_on_homosexuality_2055243.html&lt;/a&gt; &lt;a href=&quot;\nhttp://www.yle.fi/uutiset/news/2010/10/church_resignations_now_exceed_18000_2064653.html&quot; rel=&quot;nofollow&quot; target=&quot;_NEW&quot;&gt;\nhttp://www.yle.fi/uutiset/news/2010/10/church_resignations_now_exceed_18000_2064653.html&lt;/a&gt;\n\n\n\nComplete name                    : YLE-TV2-Ajankohtainen-Kakkonen-A2-Teema-Homoilta-20101012-part1.mp4\nFormat                           : MPEG-4\nFormat profile                   : Base Media\nCodec ID                         : isom\nFile size                        : 644 MiB\nDuration                         : 53mn 59s\nOverall bit rate                 : 1 667 Kbps\n\nComplete name                    : YLE-TV2-Ajankohtainen-Kakkonen-A2-Teema-Homoilta-20101012-part2.mp4\nFile size                        : 895 MiB\nDuration                         : 1h 14mn\n\n\nVideo (part1 - part2 is technically similar)\nFormat                           : AVC\nFormat profile                   : &lt;a class=&quot;__cf_email__&quot; href=&quot;/cdn-cgi/l/email-protection&quot; data-cfemail=&quot;02406371676e6b6c67424e312c32&quot;&gt;[email&amp;#160;protected]&lt;/a&gt;&lt;script cf-hash='f9e31' type=&quot;text/javascript&quot;&gt;\n/* &lt;![CDATA[ */!function(){try{var t=&quot;currentScript&quot;in document?document.currentScript:function(){for(var t=document.getElementsByTagName(&quot;script&quot;),e=t.length;e--;)if(t[e].getAttribute(&quot;cf-hash&quot;))return t[e]}();if(t&amp;&amp;t.previousSibling){var e,r,n,i,c=t.previousSibling,a=c.getAttribute(&quot;data-cfemail&quot;);if(a){for(e=&quot;&quot;,r=parseInt(a.substr(0,2),16),n=2;a.length-n;n+=2)i=parseInt(a.substr(n,2),16)^r,e+=String.fromCharCode(i);e=document.createTextNode(e),c.parentNode.replaceChild(e,c)}}}catch(u){}}();/* ]]&gt; */&lt;/script&gt;\nFormat settings, CABAC           : No\nFormat settings, ReFrames        : 3 frames\nCodec ID                         : avc1\nCodec ID/Info                    : Advanced Video Coding\nDuration                         : 53mn 59s\nBit rate mode                    : Variable\nBit rate                         : 1 511 Kbps\nWidth                            : 480 pixels\nHeight                           : 270 pixels\nDisplay aspect ratio             : 16:9\nFrame rate mode                  : Constant\nFrame rate                       : 25.000 fps\nResolution                       : 8 bits\nColorimetry                      : 4:2:0\nScan type                        : Progressive\nStream size                      : 583 MiB (91%)\nWriting library                  : x264 core 67 r1173 f6d3166\n\nAudio (part1 - part2 is technically similar)\nSpoken language                  : Finnish\nID                               : 2\nFormat                           : AAC\nFormat version                   : Version 4\nFormat profile                   : LC\nFormat settings, SBR             : No\nCodec ID                         : 40\nBit rate mode                    : Variable\nBit rate                         : 152 Kbps\nChannel(s)                       : 2 channels\nSampling rate                    : 44.1 KHz\nStream size                      : 58.7 MiB (9%)","torrent":{"xt":"urn:btih:892a0deceba12adffc6d8a64b1675a2abd0d86e7","amp;dn":"YLE+TV2+Ajankohtainen+kakkonen+A2+Teema+Homoilta+2010-10-12+Finn","amp;tr":["udp%3A%2F%2Ftracker.openbittorrent.com%3A80","udp%3A%2F%2Fopen.demonii.com%3A1337","udp%3A%2F%2Ftracker.coppersurfer.tk%3A6969","udp%3A%2F%2Fexodus.desync.com%3A6969"],"infoHash":"892a0deceba12adffc6d8a64b1675a2abd0d86e7","infoHashBuffer":{"type":"Buffer","data":[137,42,13,236,235,161,42,223,252,109,138,100,177,103,90,42,189,13,134,231]},"announce":[],"urlList":[]}}